<?xml version="1.0" encoding="utf-8"?>
<!-- Svg Vector Icons : http://www.onlinewebfonts.com/icon -->
<!DOCTYPE svg PUBLIC "-//W3C//DTD SVG 1.1//EN" "http://www.w3.org/Graphics/SVG/1.1/DTD/svg11.dtd">
<svg version="1.1" xmlns="http://www.w3.org/2000/svg" xmlns:xlink="http://www.w3.org/1999/xlink" x="0px" y="0px" viewBox="0 0 1000 1000" enable-background="new 0 0 1000 1000" xml:space="preserve">
<metadata> Svg Vector Icons : http://www.onlinewebfonts.com/icon </metadata>
<g><path d="M377.4,469.4H101.9c-50.6,0-91.9-41.2-91.9-91.9V101.9C10,51.3,51.2,10,101.9,10h275.6c50.6,0,91.9,41.2,91.9,91.8v275.7C469.4,428.2,428.1,469.4,377.4,469.4z M101.9,71.2C85,71.2,71.2,85,71.2,101.9v275.7c0,16.8,13.7,30.7,30.7,30.7h275.6c16.8,0,30.7-13.7,30.7-30.7V101.9c0-16.8-13.7-30.6-30.7-30.6H101.9L101.9,71.2z M898,591.9H622.5c-50.6,0-91.8-41.2-91.8-91.8V101.9c0-50.6,41.2-91.8,91.8-91.8h275.7c50.6,0,91.8,41.2,91.8,91.8v398C990,550.7,948.8,591.9,898,591.9z M622.5,71.2c-16.8,0-30.6,13.7-30.6,30.6v398c0,16.8,13.7,30.6,30.6,30.6h275.7c16.8,0,30.6-13.7,30.6-30.6v-398c0-16.8-13.7-30.6-30.6-30.6H622.5L622.5,71.2z M377.4,990H101.9C51.2,990,10,948.7,10,898.1V622.5c0-50.6,41.2-91.9,91.9-91.9h275.6c50.6,0,91.9,41.2,91.9,91.9v275.6C469.4,948.8,428.1,990,377.4,990z M101.9,591.9c-16.8,0-30.7,13.7-30.7,30.7v275.7c0,16.8,13.7,30.7,30.7,30.7h275.6c16.8,0,30.7-13.7,30.7-30.7V622.5c0-16.8-13.7-30.7-30.7-30.7H101.9z M898,990H622.5c-50.6,0-91.8-41.2-91.8-91.9V745c0-50.6,41.2-91.8,91.8-91.8h275.7c50.6,0,91.8,41.2,91.8,91.8v153.2C989.9,948.8,948.8,990,898,990z M622.5,714.4c-16.8,0-30.6,13.7-30.6,30.7v153.2c0,16.8,13.7,30.7,30.6,30.7h275.7c16.8,0,30.6-13.7,30.6-30.7V745c0-16.8-13.7-30.7-30.6-30.7H622.5z"/></g>
</svg>