<?xml version="1.0" encoding="utf-8"?>
<!-- Svg Vector Icons : http://www.onlinewebfonts.com/icon -->
<!DOCTYPE svg PUBLIC "-//W3C//DTD SVG 1.1//EN" "http://www.w3.org/Graphics/SVG/1.1/DTD/svg11.dtd">
<svg version="1.1" xmlns="http://www.w3.org/2000/svg" xmlns:xlink="http://www.w3.org/1999/xlink" x="0px" y="0px" viewBox="0 0 1000 1000" enable-background="new 0 0 1000 1000" xml:space="preserve">
<metadata> Svg Vector Icons : http://www.onlinewebfonts.com/icon </metadata>
<g><path d="M500,633.6c-24.6,0-44.5,20-44.5,44.5c0,24.6,20,44.5,44.5,44.5s44.5-20,44.5-44.5C544.5,653.6,524.6,633.6,500,633.6 M544.5,277.3h-89.1c-12.3,0-22.3,10-22.3,22.3c0,0.6,0.3,1,0.3,1.6h-0.3l22.3,267.3l0.3,0c0.8,11.5,10.2,20.7,22,20.7h44.5c11.7,0,21.1-9.2,22-20.7l0.3,0l22.3-267.3h-0.3c0-0.6,0.3-1,0.3-1.6C566.8,287.3,556.8,277.3,544.5,277.3 M500,10C229.4,10,10,229.4,10,500c0,270.6,219.4,490,490,490c270.6,0,490-219.4,490-490C990,229.4,770.6,10,500,10 M500,945.5C254,945.5,54.5,746,54.5,500C54.5,254,254,54.5,500,54.5C746,54.5,945.5,254,945.5,500C945.5,746,746,945.5,500,945.5"/></g>
</svg>