<?xml version="1.0" encoding="utf-8"?>
<!-- Svg Vector Icons : http://www.onlinewebfonts.com/icon -->
<!DOCTYPE svg PUBLIC "-//W3C//DTD SVG 1.1//EN" "http://www.w3.org/Graphics/SVG/1.1/DTD/svg11.dtd">
<svg version="1.1" xmlns="http://www.w3.org/2000/svg" xmlns:xlink="http://www.w3.org/1999/xlink" x="0px" y="0px" viewBox="0 0 1000 1000" enable-background="new 0 0 1000 1000" xml:space="preserve">
<metadata> Svg Vector Icons : http://www.onlinewebfonts.com/icon </metadata>
<g><path d="M601.7,92.3c5.1,0,10.2,0.4,15,1.1L802,122.7c35.6,5.7,69.3,39.3,75,74.9l29.3,185.3c5.7,35.5,1.4,73.6-36,110.9l-395,394.7c-12.7,12.7-29.5,19.1-46.3,19.1c-16.8,0-33.6-6.4-46.3-19.1l-272-271.8c-25.5-25.5-25.5-67.2,0-92.6l395-394.7C527.7,107.4,568.1,92.3,601.7,92.3 M601.7,10.8c-56.4,0-116.8,24-153.9,61.1L53,466.6c-57.3,57.3-57.3,150.5,0,207.8l271.9,271.8c27.8,27.8,64.8,43.1,104.2,43.1c39.4,0,76.4-15.3,104.1-43.1l394.9-394.6c50.3-50.3,70.1-111.3,58.9-181.4l-29.4-185.2C946.5,114.8,885.2,53.4,815,42.2L629.5,12.9C620.6,11.5,611.2,10.8,601.7,10.8L601.7,10.8L601.7,10.8z M605.3,312.7c0-44.9,36.5-81.4,81.5-81.4c45,0,81.5,36.5,81.6,81.4c0.1,45-36.6,81.4-81.5,81.4C641.8,394.1,605.3,357.7,605.3,312.7L605.3,312.7z"/></g>
</svg>