<?xml version="1.0" encoding="utf-8"?>
<!-- Svg Vector Icons : http://www.onlinewebfonts.com/icon -->
<!DOCTYPE svg PUBLIC "-//W3C//DTD SVG 1.1//EN" "http://www.w3.org/Graphics/SVG/1.1/DTD/svg11.dtd">
<svg version="1.1" xmlns="http://www.w3.org/2000/svg" xmlns:xlink="http://www.w3.org/1999/xlink" x="0px" y="0px" viewBox="0 0 1000 1000" enable-background="new 0 0 1000 1000" xml:space="preserve">
<metadata> Svg Vector Icons : http://www.onlinewebfonts.com/icon </metadata>
<g><path d="M146.5,776.8c-34.6,0-63.8,22.9-73.4,54.4L39.9,941c-0.4,1.3-0.7,2.9-0.7,4.5c0,8.5,6.8,15.3,15.3,15.3c1.5,0,3-0.3,4.5-0.7l109.8-33.4c31.5-9.5,54.4-38.8,54.4-73.4C223.3,811.1,188.9,776.8,146.5,776.8z M944,10c-165.4,0-325.1,7.2-459.3,94.6c-70.8,46.1-129.6,110.7-177,182.8c-114.8,7-221.7,65.2-289.2,159.8c-9.2,12.8-11.1,29.7-5.1,44.3c6,14.7,19.2,25.2,34.8,27.7c41.3,7,87.1,25.5,133.3,52.8c-8.3,30.6-15.1,60.3-20,88.2c-2.6,14.7,2.2,29.9,12.8,40.4l124.8,124.7c8.7,8.8,20.4,13.5,32.5,13.5c2.6,0,5.2-0.2,7.9-0.8c27.8-4.8,57.6-11.5,88.2-19.9c27.3,46.3,45.9,92.1,52.8,133.4c2.7,15.7,13.2,28.8,27.8,34.9c5.7,2.4,11.7,3.5,17.7,3.5c9.4,0,18.7-3,26.7-8.5c94.6-67.4,152.8-174.4,159.7-289.2c72.1-47.4,136.7-106.2,182.7-177C982.6,381.1,990,214.8,990,56C990,30.6,969.4,10,944,10z M110.9,455.8c40.5-41.7,92.1-70.7,148.1-84.1c-21.2,41.4-39,83.8-53.8,125.5C173.5,479.6,141.8,465.5,110.9,455.8z M544.3,889.1c-9.7-30.9-23.8-62.5-41.3-94.3c41.8-14.8,84-32.7,125.4-53.9C615,797,585.9,848.6,544.3,889.1z M818.3,465c-95.4,146.5-301,243.4-471.1,278.2l-90.4-90.4C291.5,482.7,388.5,277.1,535,181.7c101.5-66.1,228.6-77.8,362.8-79.5C896.1,236.4,884.4,363.5,818.3,465z M667.9,408.7c42.4,0,76.8-34.3,76.8-76.7c0-42.3-34.3-76.6-76.8-76.6c-42.3,0-76.6,34.3-76.6,76.6C591.3,374.4,625.6,408.7,667.9,408.7z"/></g>
</svg>